<svg width="32" height="32" viewBox="0 0 32 32" fill="none" xmlns="http://www.w3.org/2000/svg">
<circle cx="16" cy="16" r="16" fill="white"/>
<g clip-path="url(#clip0_301_8)">
<path fill-rule="evenodd" clip-rule="evenodd" d="M16 15H17.652C19.36 15 20.282 17.004 19.17 18.302L17.552 20.189C17.727 21.3083 18.3175 22.3204 19.2059 23.0234C20.0943 23.7264 21.215 24.0686 22.3446 23.9816C23.4741 23.8946 24.5293 23.3849 25.2995 22.5542C26.0698 21.7235 26.4985 20.6329 26.5 19.5C26.5 19.1022 26.658 18.7206 26.9393 18.4393C27.2206 18.158 27.6022 18 28 18C28.3978 18 28.7794 18.158 29.0607 18.4393C29.342 18.7206 29.5 19.1022 29.5 19.5C29.5 21.0741 29.0047 22.6083 28.0843 23.8853C27.1639 25.1623 25.865 26.1173 24.3717 26.6151C22.8784 27.1129 21.2663 27.1282 19.7637 26.6589C18.2612 26.1895 16.9445 25.2593 16 24C15.0555 25.2593 13.7388 26.1895 12.2363 26.6589C10.7337 27.1282 9.12163 27.1129 7.62829 26.6151C6.13495 26.1173 4.83609 25.1623 3.91568 23.8853C2.99528 22.6083 2.5 21.0741 2.5 19.5C2.5 19.1022 2.65804 18.7206 2.93934 18.4393C3.22064 18.158 3.60218 18 4 18C4.39782 18 4.77936 18.158 5.06066 18.4393C5.34196 18.7206 5.5 19.1022 5.5 19.5C5.49826 20.6349 5.92537 21.7285 6.69578 22.5618C7.46619 23.3951 8.523 23.9065 9.65452 23.9936C10.786 24.0808 11.9087 23.7371 12.7976 23.0316C13.6865 22.3261 14.276 21.3107 14.448 20.189L12.83 18.302C11.718 17.004 12.64 15 14.35 15H16Z" fill="#333333"/>
<path d="M23 11C24.6569 11 26 9.65685 26 8C26 6.34315 24.6569 5 23 5C21.3431 5 20 6.34315 20 8C20 9.65685 21.3431 11 23 11Z" fill="#333333"/>
<path d="M9 11C10.6569 11 12 9.65685 12 8C12 6.34315 10.6569 5 9 5C7.34315 5 6 6.34315 6 8C6 9.65685 7.34315 11 9 11Z" fill="#333333"/>
</g>
<defs>
<clipPath id="clip0_301_8">
<rect width="28" height="22" fill="white" transform="translate(2 5)"/>
</clipPath>
</defs>
</svg>
